<svg width="72" height="64" viewBox="0 0 72 64" fill="none" xmlns="http://www.w3.org/2000/svg">
<path fill-rule="evenodd" clip-rule="evenodd" d="M64 23.055L71.3363 29.5338C71.7101 29.9473 71.9426 30.4692 72 31.0238C71.9526 31.507 71.776 31.9685 71.4887 32.36L68.8125 35.3363C68.4011 35.7097 67.8814 35.9422 67.3288 36C66.8443 35.9504 66.3818 35.7726 65.9887 35.485L64 33.735V60C64 61.0609 63.5786 62.0783 62.8284 62.8284C62.0783 63.5786 61.0609 64 60 64H12.0112C10.9504 64 9.93297 63.5786 9.18282 62.8284C8.43268 62.0783 8.01125 61.0609 8.01125 60V33.7363L6.02375 35.4863C5.63247 35.7742 5.17093 35.9517 4.6875 36C4.1299 35.9438 3.6046 35.7118 3.1875 35.3375L0.51125 32.3638C0.204426 31.9823 0.0255461 31.5139 0 31.025C0.0292101 30.4653 0.263228 29.9359 0.6575 29.5375L32.6575 1.2875C33.4425 0.57625 34.9338 0 36 0C37.0662 0 38.5625 0.57625 39.3475 1.2875L52 12.4587V6C52 5.46957 52.2107 4.96086 52.5858 4.58579C52.9609 4.21071 53.4696 4 54 4H62C62.5304 4 63.0391 4.21071 63.4142 4.58579C63.7893 4.96086 64 5.46957 64 6V23.055ZM48.6886 45.0062C48.6945 45.0003 48.7004 44.9943 48.7063 44.9883C50.6961 42.947 51.8017 40.204 51.7834 37.3534C51.7651 34.5028 50.6245 31.7742 48.6087 29.7586C46.5928 27.7431 43.864 26.6028 41.0134 26.585C39.2685 26.574 37.5639 26.9842 36.036 27.7605C35.7456 27.6067 35.4478 27.4659 35.1435 27.3387C33.8267 26.7882 32.4141 26.5032 30.9868 26.5C29.5596 26.4969 28.1457 26.7757 26.8265 27.3205C25.5073 27.8652 24.3086 28.6652 23.2994 29.6744C22.2902 30.6836 21.4902 31.8823 20.9455 33.2015C20.4007 34.5207 20.1219 35.9346 20.125 37.3618C20.1282 38.7891 20.4132 40.2017 20.9637 41.5185C21.513 42.8326 22.316 44.0254 23.3266 45.0289L31.3409 53.0432L31.3413 53.0436C32.5762 54.2781 34.2509 54.9716 35.997 54.9716C37.7432 54.9716 39.4179 54.2781 40.6528 53.0436L40.6534 53.0429L48.6729 45.022C48.6782 45.0168 48.6834 45.0115 48.6886 45.0062ZM33.6971 30.7985C34.5583 31.1585 35.3399 31.6851 35.997 32.3481C37.3318 31.0465 39.1257 30.3232 40.9899 30.3349C42.8542 30.3466 44.6388 31.0923 45.9572 32.4105C47.2756 33.7286 48.0215 35.5132 48.0335 37.3774C48.0454 39.2417 47.3224 41.0357 46.021 42.3706L38.0016 50.3915C37.4699 50.923 36.7488 51.2216 35.997 51.2216C35.2452 51.2216 34.5242 50.923 33.9925 50.3915L25.9731 42.372C25.3101 41.7149 24.7835 40.9333 24.4235 40.0721C24.0635 39.2109 23.8771 38.287 23.875 37.3536C23.873 36.4202 24.0553 35.4955 24.4116 34.6328C24.7678 33.77 25.291 32.9861 25.9511 32.3261C26.6111 31.666 27.395 31.1428 28.2578 30.7866C29.1205 30.4303 30.0452 30.248 30.9786 30.25C31.9121 30.2521 32.8359 30.4385 33.6971 30.7985Z" fill="#BCDCE8"/>
</svg>
